<svg width="980" height="570" viewBox="0 0 980 570" fill="none" xmlns="http://www.w3.org/2000/svg">
<g filter="url(#filter0_d_1_106)">
<path d="M7 109C38.9969 109 70.7504 106 102.778 106C113.091 106 121.938 105.052 132 103.222C138.369 102.064 144.567 102 151 102H155.5C158.485 102 157 110.037 157 112.056C157 129.871 151 147.339 151 165.222C151 178.253 150 191.384 150 204.5C150 216.952 152.698 228.785 154.056 241C155.156 250.907 160 260.957 160 271C160 290.654 159 310.518 159 330M6 112C6 133.51 6.10115 154.915 7.05556 176.389C7.43966 185.031 7.44026 195.181 10 203.5C14.2938 217.455 16 233.033 16 247.556C16 262.362 16.4747 277.068 17 291.778C17.0498 293.171 17.2198 295.777 19 296C22.1615 296.395 17.7746 303.829 17.2222 305C15.6199 308.397 14 314.229 14 318M15 289C15 292.642 13.5658 301.018 15.5 304.5C16.8806 306.985 17 313.424 17 316.222C17 319.935 18 323.589 18 327.5C18 330.254 17.0892 335.112 18.7778 337.222C20.3673 339.209 17.0343 346 21.5 346C26.5519 346 32.9483 345.653 37.7778 344.222C45.2785 342 53.6834 342 61.6213 342H61.7778C85.6713 342 110.028 343 134.222 343H162C167.852 343 166.799 342.486 164.556 338C163.336 335.56 162.212 330.106 160 329M11 118C11 118.337 10.8846 128.894 12 127.5C13.1347 126.082 19.1244 126 21 126M22 123C26.3574 119.596 27 117.642 27 123.5C27 125.873 22.7461 125.492 22 124M34 122C34 124.536 35.5006 130 32 130M38 122C38.6598 121.871 45.4492 119.822 45.9444 121.556C46.6559 124.046 44.9817 123.273 44 124.5C41.8522 127.185 37.8911 124.554 41 123M13 138C17.5535 138 21.6927 137 26 137M13 144C17.1346 144 21.1452 143 25 143M13 151H25M7 166C36.993 166 66.834 164.605 96.5 169C106.949 170.548 117.466 170.897 127.944 171.944C131.894 172.339 135.453 173 139.444 173C144.69 173 144 174.1 144 179V190.778C144 198.069 144.716 205.148 147 212M7.99999 168C7.99999 182.11 7.17686 197.125 11.2222 210.778C12.168 213.97 12.6546 217.129 14.5 220C15.9024 222.182 18 225.839 18 228.5C18 232.57 19.1799 232.217 22.2222 232C29.5655 231.475 36.5899 230 44 230C53.4693 230 62.7524 227 72 227C78.5979 227 85.6147 226 92.5 226C101.145 226 112.011 227.749 120.222 225.222C125.626 223.56 131.86 223.309 137.5 222.056C139.881 221.526 143.675 221.145 146 221C146.579 220.964 145 215.528 145 214M46 178C69.2861 178 91.856 176 115 176M48 197C64.283 197 80.9213 198.205 96.9444 195C102.404 193.908 107.402 193 113 193M63 207C74.4302 207 86.6215 208.209 98 206.944C100.599 206.656 112.042 206.917 113 205M27 222C28.5484 225.968 29.4556 229.911 27 225M32 224C34.026 235.577 25.9398 224 31 224M38 226C38.0939 225.583 38.1943 225.198 38.2993 224.845M38.2993 224.845C40.1587 218.591 43.4843 222.063 38.2993 224.845ZM38.2993 224.845C38.2025 224.897 38.1028 224.949 38 225M45 225C50.9148 221.538 53.3742 221.612 47.4445 225C43.6693 227.157 42.1673 225.916 46 224M65 249H90M63 270H94C97.6929 270 101.248 270.308 104.778 269.222C108.77 267.994 106.861 271.088 107 274.222C107.321 281.452 111.855 289.423 114.778 296C115.986 298.718 99.1915 303.359 96 304.778C91.3556 306.842 85.0693 306 80 306C74.5206 306 69.5432 302 64 302C57.444 302 55 300.661 55 294V278C55 275.775 54.2843 272.73 56.2222 271.222C56.5907 270.936 61.6953 272.391 62 273M53 314C63.3957 314 73.6303 314.087 83.9445 313.056C88.5451 312.596 92.4274 311 97.0556 311C100.445 311 103.466 309.792 107 310C108.019 310.06 113.919 313.353 114 314C114.252 316.014 119.853 316.601 121.444 317.056C121.612 317.103 118.8 321.016 119.5 322.556C122.235 328.572 105.418 329 101 329C95.9402 329 87.1192 329.934 82.5 332.5C78.8934 334.504 68.7928 335.119 65 333.222C59.1874 330.316 53.1807 327.656 47.5 324.5C46.3417 323.857 45.7706 323.227 44.5 322.944C41.6612 322.314 45.4504 322.04 45.7778 321.778C47.4154 320.468 51.3179 318.364 52 317M68 323H87C91.2209 323 94.6766 321 99 321M71 319C74.0801 318.399 76.8945 318 80 318M19 336H49C50.8991 336 54.1411 337.246 55.5 336.944C66.2739 334.55 78.9287 334 90 334C102.349 334 114.123 332 126.5 332C137.853 332 148.809 333 160 333M239 53H363.333C366.126 53 369.911 52.298 372.556 53.5C376.138 55.1285 382.098 54 385.722 54C393.504 54 401.602 54.596 409.333 53.4445C413.944 52.7577 418.941 51.9037 423.444 50.7778C428.778 49.4444 434.935 48.248 440 46.2222C442.433 45.249 441 50.7165 441 52.5C441 58.4817 444.817 65.7878 446.556 71.5C450.72 85.1832 456.42 97.8422 458.778 112.222C460.432 122.314 464 132.744 464 143C464 153.307 462.705 166.385 466.444 176C470.223 185.715 472 196.624 472 207C472 210.687 472.938 213.645 472.222 217.222C471.246 222.103 469 227.525 469 232.5C469 243.329 463 253.391 463 264.222C463 272.537 462.692 280.912 463 289.222C463.465 301.777 467.726 314.137 469 326.556C469.49 331.328 472.749 336.737 473 341C473.192 344.271 473 347.617 473 350.889C473 355.478 471.884 363.605 474.778 367.222C475.7 368.375 476 374.869 476 376.5C476 379.186 476.18 381.64 475 384M239 54H225.556C222.534 54 224 67.4769 224 69.7778C224 86.8939 223 103.979 223 121C223 137.132 225 152.871 225 169C225 186.363 228.684 203.616 229 221C229.178 230.806 231 240.709 231 250.5C231 258.651 233.235 267.024 231.778 275.222C230.191 284.147 230.26 293.107 228.778 302C226.886 313.352 226 326.871 226 338C226 344.829 224.06 351.459 226.056 358.444C228.325 366.386 226 375.14 226 383.5C226 387.772 233.371 387 237.5 387C242.712 387 253.021 385.012 257.5 387.5C261.457 389.698 268.405 389 272.778 389C277.973 389 282.646 389.864 287.556 391.5C293.774 393.573 302.467 392 309 392H309.409C317.125 392 324.384 392.001 331.944 390.444C342.172 388.339 352.237 385.011 362.222 382C375.302 378.055 386.997 377 400.5 377C414.425 377 430.301 374.424 443.5 379.5C448.699 381.5 454.742 381 460.222 381C469.613 381 478.835 381.291 488 379M227 61C227.581 64.6317 227.693 68.248 229.5 71.5C229.995 72.391 229.506 75.0617 230 75.5556C230.388 75.9436 239.222 74 241 74M244 64C245.474 71.556 245.276 72.428 238 72C234.217 71.7775 241.878 65.3739 243 65M252 65C247.209 66.0779 245.832 65.8868 247.778 69C248.538 70.2163 251.044 72 252.5 72C252.929 72 253.153 71.8838 253.224 71.6881M253.224 71.6881C253.399 71.2076 252.66 70.2475 251.807 69.3476M253.224 71.6881C252.816 70.832 252.342 70.0359 251.807 69.3476M253.224 71.6881C254.497 74.3577 255.133 77.6107 255 80C254.818 83.2693 245.842 84.6831 245 83M251.807 69.3476C250.334 67.7942 248.525 66.4199 250.5 68C250.969 68.3751 251.405 68.831 251.807 69.3476ZM256 69C259.467 69 265.946 68.5674 262 73.5C259.52 76.5998 258.442 71.7212 257 71M414 65H430M419 76H434M420 85C424.422 85 429.087 84 433 84M225 94C241.339 94 257.734 93.4345 273.944 95.0556C282.308 95.8919 290.299 97 298.778 97C318.635 97 338.28 96.3721 358 96C370.197 95.7699 382.2 94 394.5 94H415C425.584 94 435.49 95 446 95M223 107C248.956 107 275.201 105.638 300.944 109.5C319.315 112.256 338.392 112 356.944 112C376.584 112 396.516 115.484 415.944 113.056C423.78 112.076 431.659 112 439.778 112C441.27 112 447.634 111.079 448.778 112.222C450.033 113.478 448.962 119.466 449 121C449.182 128.368 450.387 135.861 452.222 143C453.981 149.84 454.166 157.464 456.5 164C457.453 166.669 457.116 169.009 458.5 171.5C459.353 173.036 461 176.865 461 178.5C461 183.623 463.293 189.024 463 194C462.893 195.817 439.68 196 436.778 196C431.827 196 427.3 195.794 422.5 195.056C419.311 194.565 415.66 193 412.444 193C403.271 193 394.185 189 385.056 189C369.403 189 353.711 188.873 338 188C332.479 187.693 326.758 185.391 321.056 185.056C313.32 184.601 305.772 184 298 184H265.556C258.599 184 250.413 185.188 243.778 183.222C238.513 181.662 231.718 183.359 227 181M229 174C232.053 174.687 235.844 176 231 176M236 176C236.77 176 239.603 176.19 242.26 176.401M242.26 176.401C245.076 176.625 247.693 176.873 247.444 176.944C246.304 177.27 244.016 176.991 242.26 176.401ZM242.26 176.401C241.161 176.032 240.271 175.541 240 175M306 128H373.5C382.074 128 390.489 125 399 125M324 143C342.107 143 360.273 142.665 378.222 142C384.53 141.766 390.562 141 397 141M242 126C255.921 126 270.097 125.182 284 126C285.744 126.103 286 144.91 286 147.5C286 151.548 288.241 162 282.5 162H240C237.723 162 234 161.427 234 159C234 155.165 232.857 152.104 232.056 148.5C231.02 143.84 231 138.229 231 133.5C231 126.206 247 135.977 247 128M310 212H378M231 243C277.55 243 324.552 244.636 371 242.056C386.672 241.185 402.441 238 418 238H430.5C434.025 238 437.457 240.059 440.556 240.944C443.728 241.851 448.753 242.82 452 243C455.637 243.202 458.546 245 462 245M234 282H336C347.326 282 358.513 281.358 369.778 281C376.99 280.771 383.826 279 391.056 279H452.5C455.688 279 458.664 277 462 277M300 248C300 260.279 304 272.269 304 284M380 245C380 249.455 379.174 254.391 381 258.5C382.047 260.855 383 263.165 383 265.778V279M226 333H314C339.2 333 363.225 322.556 388.222 322C413.498 321.438 438.64 322 464 322M326 295C334.409 295 341.996 296 350 296C353.549 296 366.636 297.728 368 295M241 312H322.556C333.379 312 344.156 310 355 310C365.35 310 374.996 310.092 385 307C395.854 303.645 406.272 301.913 417.444 303.944C425.813 305.466 433.321 306 442 306M238 323H294.5C304.225 323 313.182 319 323 319C339.499 319 355.542 320 372 320C378.952 320 385.79 318 392.5 318C400.3 318 408.023 317.699 415.444 315C422.197 312.545 440.084 312.056 446 316M227 362H345.056C356.308 362 366.993 358.178 378.222 358C387.324 357.856 396.876 357.515 406 356.944C415.028 356.38 423.961 354.509 433 353.944C438.377 353.608 446.056 353.304 451 351.222C453.734 350.071 468.577 348.153 470 351M255 370H265M256 375H269M257 382C261.135 382 265.145 383 269 383M293 375H305M299 385C302.119 385 304.459 384.73 307 386M22 183C17.3453 183.116 15.5475 183 20.5 183H22ZM22 183H32C34.3496 183 32 182.885 32 185.556C32 187.724 31.4331 190.541 32.7778 192.222C35.392 195.49 23.3204 194 21 194C14.3847 194 16 190.73 16 185M503 74C559.628 74 615.834 73.7803 672.222 68.0555C702.595 64.972 732.502 63 763 63C800.224 63 837.223 61 874.444 61H923.5C933.426 61 946.712 58.9835 956 63C960.423 64.9128 965.285 64.4731 969.944 65.0555C975.81 65.7887 973.452 69.5748 972.778 74.2222C971.261 84.6687 970.083 94.6658 969.056 104.944C967.311 122.387 963 139.081 963 156.944C963 168.906 963.598 181.047 963 193C962.496 203.089 955.585 212.44 954.111 222.389C953.371 227.384 953.463 234.063 954.222 239C956.961 256.803 956.598 274.784 958.5 292.667C960.167 308.336 961.349 324.286 962.778 340C964.135 354.928 967.066 369.894 967.944 384.833C968.201 389.202 969.621 393.352 968.778 397.778C967.239 405.855 965.478 413.871 964 422C962.148 432.185 962 442.19 962 452.5C962 456.613 961.675 460.78 962.778 464.778C963.052 465.772 963.948 467.12 964 468C964.723 480.283 966.95 492.083 964.5 504.333C963.77 507.984 963.192 512.35 963 516C962.941 517.123 963.889 517.78 963.889 518.5C963.889 519.612 961.293 518.36 961.056 519.667C959.842 526.342 962 546.785 962 540M502 74C495.286 74 488.49 73.7418 481.778 74C478.292 74.1341 478.913 74.7763 479 77.2222C479.268 84.7359 481.035 92.4888 481.778 100C484.515 127.675 490.757 154.825 491 182.778C491.073 191.171 491.181 198.115 489.056 205.556C488.062 209.031 489.008 213.222 488.056 216.556C484.907 227.577 487.075 237.116 493 247.889C497.312 255.73 503.175 261.245 504.056 270.056C504.741 276.912 508 284.273 508 291M486 214V237.222C486 241.541 486.851 244.831 487.778 249C488.914 254.113 487.933 259.931 489.5 264.944C492.634 274.974 497.442 284.407 498 295C498.663 307.603 503 319.808 503 332.5C503 345.197 504.353 357.301 504 370C503.574 385.323 503.453 400.474 504 415.778C504.347 425.506 506.865 435.288 507.944 445C508.873 453.355 510 462.14 510 470.556C510 474.601 511 478.366 511 482.5C511 486.505 510.078 491.915 511.222 495.778C513.283 502.734 512 511.525 512 518.778C512 526.552 513 534.298 513 541.944V552.5C513 557.5 523.784 555 527.5 555C540.409 555 553.087 556 566 556C576.397 556 586.828 555.769 597.222 556C602.433 556.116 607.708 556.857 613 557C619.133 557.166 627.019 557.141 633 558.5C644.573 561.13 658.459 558.777 670 558.056C680.498 557.399 691.733 557.72 702 555.222C709.687 553.352 716.894 553 724.778 553C728.928 553 732.959 552.827 737 553.778C739.767 554.429 743.732 556 746.5 556C762.362 556 778.817 556.311 795 556C804.694 555.814 814.149 554 824 554C830.214 554 836.579 553 842.5 553C860.46 553 877.953 550 896 550C910.542 550 924.176 547 938.5 547H960.5C964.195 547 960.821 544.641 960 543M482 113C529.212 113 574.579 105.27 621.111 98.0556C641.222 94.9375 660.665 93 681 93C702.502 93 722.873 91.4268 744.222 95.2222C773.72 100.466 804.268 96.3706 834 100.5C844.537 101.963 856.365 101.852 867 102C874.497 102.104 882.002 102 889.5 102H921.5C929.101 102 938.071 100.695 945.556 102.056C951.578 103.151 957.88 104 964 104M491 88C491 91.5223 489.434 97.7668 493.556 98.9445C496.372 99.7491 500.652 99.1738 503 98M506 90C509.357 90.7368 513 90.6939 513 94.5C513 96.6025 513.487 98 511 98C505.631 98 506 97.1444 506 92M518 91C518.772 91.6035 526.665 99.6668 521 100C517.797 100.188 519 95.3329 519 93M520 96C521.14 98.9201 525.016 106 520.5 106C517.429 106 513.575 106.717 511 105M527 93C529.09 94.633 531.888 96.002 530 98.7778C529.755 99.1383 527.998 100.889 527.5 100.889C525.862 100.889 527.627 95.559 528 95M728 79H754M789 79C799.121 79 808.983 78 819 78M843 77H865M884 78H903M927 76C933.419 76 933.495 76.5175 932.056 81.5556C931.688 82.8419 929.282 86.4376 927.556 85.9444C923.207 84.7021 923.327 76.8366 927 75M501 129C546.724 129 591.594 128.682 636.833 121C655.038 117.909 673.461 115.995 691.222 111C723.962 101.792 759.645 108.929 792.231 115.446L792.5 115.5C814.512 119.902 836.726 122.337 858.968 124.774L859 124.778C877.82 126.84 897.185 124.345 916 126.056C919.027 126.331 921.956 126.821 925 127C927.213 127.13 924.237 128.365 923.778 128.778C918.962 133.112 922.294 147.841 924.778 153C932.532 169.105 937 183.181 937 201.444C937 212.641 938.345 223.873 939 235C939.07 236.194 940.89 237.891 941.444 239C943.13 242.371 936.61 241 934.833 241C924.902 241 915.267 242.902 905.5 244.5C899.002 245.563 892.509 248.138 886.056 248.944C869.422 251.024 852.97 257 836.056 257C819.744 257 803.216 258 786.778 258H771.5C765.557 258 758.211 254.948 752.444 253.556C738.825 250.268 724.903 250 711 250C662.527 250 614.452 255.456 566 256C550.621 256.173 534.14 257.218 519 255.056C514.933 254.475 511.175 253.439 507.222 252.222C504.912 251.512 499.097 252.194 498 250M499 132V199.778C499 208.968 498.82 218.062 499.944 227.056C500.956 235.147 501 243.857 501 252M682 284C694.718 284 707.783 284.847 720.444 283.5C725.634 282.948 730.784 282 736 282M692 146H724M664 168H769C776.11 168 785.774 169.151 792 165M672 192H850M540 218C558.566 218 577.346 217.128 595.889 218.056C610.239 218.773 624.614 220.867 639 221C657.987 221.176 676.167 220.518 694.944 217.5C710.981 214.923 727.183 214.351 743.222 212C759.252 209.651 774.689 204.971 790.5 201.5C801.703 199.041 812.64 198.058 824 196.778C835.608 195.47 870.682 195 859 195M543 353C556.986 353 571.125 352 584.944 352C592.329 352 599.442 351 606.778 351C611.905 351 616.521 350.821 621.5 350.056C629.163 348.877 632.023 356.327 634 362.778C637.707 374.873 645 388.042 645 400.944C645 404.789 647.213 418.072 644.778 420.778C642.503 423.305 636.93 423.132 634 424C628.535 425.619 623.155 426 617.5 426C610.143 426 602.541 426.62 595.5 425.056C585.151 422.756 574.331 423 563.556 423C560.709 423 551.87 423.105 549.778 421.222C546.39 418.173 544.757 414.563 542.5 410.5C536.712 400.082 533 388.479 533 376.5C533 372.5 533.591 368.67 535.222 365C536.613 361.871 537.222 354.389 540 353M697 352C711.91 352 726.922 351.413 741.778 352.778C748.445 353.39 755.489 354.638 762 355C766.634 355.257 771.358 355 776 355C779.669 355 785.785 359.924 786 364C786.204 367.885 785.351 372.187 786.222 376C786.907 378.995 788 381.945 788 385C788 389.715 794.582 420.158 787 421C784.261 421.304 782.526 423.894 779.778 424C776.689 424.119 774.155 426 771 426C765.234 426 759.5 428 753.5 428H732.444C723.683 428 713.771 428.034 705.056 426.944C697.905 426.051 694.27 424.538 691.5 418.444C688.64 412.153 687.497 404.793 685.222 398.222C681.772 388.254 682 378.186 682 367.5C682 363.138 683.371 357.332 685.5 353.5C687.27 350.315 686.615 351.572 690 352.056C692.997 352.484 696.158 353.053 699 354M832 358H900M899 359C910.93 359 922.839 358 934.5 358C938 358 938 358.337 938 361.897V377.944C938 384.328 938.338 392.948 940.5 399C941.793 402.621 942 408.63 942 412.5C942 417.544 931.443 418.244 927.5 419.444C915.14 423.206 901.648 422.532 888.944 420.944C879.803 419.802 871.367 419 862 419C858.062 419 852.109 420.178 848.778 418C845.315 415.736 841.267 413.214 838.222 410.778C835.387 408.509 831.266 408.784 831 404C830.635 397.433 830 390.926 830 384.222V367C830 364.783 830.354 356.823 832 356M517 449C531.537 449 545.922 447 560.5 447H595C620.682 447 646.27 446 672 446H938.5C946.957 446 952.024 444.555 955.778 453C956.956 455.651 956 460.601 956 463.5C956 466.161 956.645 473.749 958.222 475.778C958.474 476.101 946.146 481.638 944 481.944C939.353 482.608 934.201 482 929.5 482C918.895 482 908.596 483 898.056 483C892.95 483 888.265 481 883.222 481C874.857 481 866.322 479.812 858 479.056C849.734 478.304 841.076 479 832.778 479C816.019 479 799.372 478 782.611 478C755.685 478 728.975 475.365 702 475C673.086 474.609 644.14 475 615.222 475H588C577.09 475 564.192 476.824 553.5 474.5C541.449 471.88 527.804 466 515.556 466C512.325 466 505.703 467.669 507.778 463C509.026 460.191 508.966 454.517 512 453M510 517C553.644 517 598.349 520.048 641.778 515.222C652.668 514.012 663.413 511.766 674.222 510.222C685.21 508.653 696.937 509.493 708.056 508.5C729.581 506.578 754.624 504.035 776.056 508.5C782.968 509.94 791.351 510.455 798.444 510.944C806.564 511.504 814.621 513 822.778 513H910C929.023 513 947.889 517 967 517M14 328C26.7031 327.705 38.2246 321 51 321H105.444C107.841 321 118.785 319.893 117 319M117 324H144C146.977 324 149.661 321.466 152.944 321.056C156.735 320.582 160.006 320 164 320M54 285H107M56 271C54.9827 265.786 53.705 264 59 264C61.598 264 63.3663 264.319 65.5556 264.944C69.0292 265.937 76.8112 265.639 80 264.222C83.8759 262.5 89.1253 263 93.5 263H100.5C102.804 263 101.855 267.283 103 269M656 14C656 21.4513 656.796 28.67 657 36C657.056 38.009 657.449 44.8931 658.778 46.2222C662.558 50.0023 674.477 45.5078 679 44M324 4C324.167 11.029 327.89 19.0401 330.222 25.7778C331.35 29.0346 334.77 40.941 332.5 30.5C331.21 24.5659 329.144 18.4311 328.056 12.4444C327.207 7.77698 323.817 0.467758 330.222 3C338.845 6.40895 347.14 11.6523 351.778 20C352.156 20.6814 353.884 25.798 354 22.7778C354.15 18.8718 354.17 14.7241 355.5 11C356.299 8.76392 357 4.92241 357 2.55555C357 -0.0883968 357.831 7.50141 358 8.55555C359.28 16.5575 364.567 22.7008 367 30M98 80C92.4666 77.2333 85.9633 75.3271 80 73C79.5404 72.2149 74.8202 65.2404 77.6111 64C81.676 62.1934 85.7188 60.8205 89.9444 59.5C93.9327 58.2537 98.8363 59 103 59M95 80C99.5064 81.0139 104 83.2608 104 88.5C104 90.5677 105.18 97.3242 102.389 97.9444C98.3733 98.8368 81.0979 99.1958 79 95M29 122C32.0711 127.037 36 132.015 36 123.5C36 119.596 31.0412 120.979 29 122Z" stroke="black" stroke-width="3" stroke-linecap="round" shape-rendering="crispEdges"/>
</g>
<defs>
<filter id="filter0_d_1_106" x="0.5" y="0.498901" width="978.817" height="568.716" filterUnits="userSpaceOnUse" color-interpolation-filters="sRGB">
<feFlood flood-opacity="0" result="BackgroundImageFix"/>
<feColorMatrix in="SourceAlpha" type="matrix" values="0 0 0 0 0 0 0 0 0 0 0 0 0 0 0 0 0 0 127 0" result="hardAlpha"/>
<feOffset dy="4"/>
<feGaussianBlur stdDeviation="2"/>
<feComposite in2="hardAlpha" operator="out"/>
<feColorMatrix type="matrix" values="0 0 0 0 0 0 0 0 0 0 0 0 0 0 0 0 0 0 0.25 0"/>
<feBlend mode="normal" in2="BackgroundImageFix" result="effect1_dropShadow_1_106"/>
<feBlend mode="normal" in="SourceGraphic" in2="effect1_dropShadow_1_106" result="shape"/>
</filter>
</defs>
</svg>
